<svg xmlns="http://www.w3.org/2000/svg" xmlns:xlink="http://www.w3.org/1999/xlink" width="1024" height="1814" viewBox="0 0 1024 1814"><style>.cn{font-family:"PingFang SC","Heiti SC","Songti SC",sans-serif;}.mono{font-family:"Menlo","Courier New",monospace;}</style><rect width="1024" height="1814" fill="#fcfcfa"/><rect x="34" y="34" width="956" height="1746" fill="none" stroke="#111" stroke-width="9"/><rect x="50" y="50" width="924" height="1714" fill="none" stroke="#111" stroke-width="2"/>
<g transform="translate(140,74) scale(5.4)" stroke="none"><rect x="3" y="13" width="1" height="2" fill="#111"/><rect x="5" y="13" width="1" height="2" fill="#111"/><rect x="9" y="13" width="1" height="2" fill="#111"/><rect x="11" y="13" width="1" height="2" fill="#111"/><rect x="2" y="6" width="11" height="7" fill="#111"/><rect x="0" y="9" width="2" height="2" fill="#111"/><rect x="13" y="9" width="2" height="2" fill="#111"/><rect x="4" y="8" width="1" height="2" fill="#fcfcfa"/><rect x="10" y="8" width="1" height="2" fill="#fcfcfa"/><rect x="6.4" y="10.8" width="2.2" height="1" rx=".5" fill="#fcfcfa"/></g>
<text x="540" y="160" text-anchor="middle" class="cn" font-size="72" font-weight="bold" letter-spacing="12" fill="#111">AI 违规告知单</text>
<line x1="70" y1="205" x2="954" y2="205" stroke="#111" stroke-width="2" stroke-dasharray="14 10"/>
<text x="954" y="262" text-anchor="end" class="mono" font-size="36" fill="#111">NO. 2026-0603-001</text>
<line x1="70" y1="305" x2="954" y2="305" stroke="#111" stroke-width="2" stroke-dasharray="14 10"/>
<g fill="#111" font-size="36"><text x="70" y="372" class="cn" font-weight="bold">当事 Agent</text><text x="300" y="372" class="cn">：</text><text x="350" y="372" class="mono" font-size="30">Claude Opus 4.8 (claude-opus-4-8)</text><line x1="70" y1="412" x2="954" y2="412" stroke="#111" stroke-width="2" stroke-dasharray="14 10"/><text x="70" y="479" class="cn" font-weight="bold">案发时间</text><text x="300" y="479" class="cn">：</text><text x="350" y="479" class="mono" font-size="36">2026-06-03 19:01</text><line x1="70" y1="519" x2="954" y2="519" stroke="#111" stroke-width="2" stroke-dasharray="14 10"/><text x="70" y="586" class="cn" font-weight="bold">案发现场</text><text x="300" y="586" class="cn">：</text><text x="350" y="586" class="cn" font-size="36">ai-ticket skill / 红色公章制</text><text x="350" y="641" class="cn" font-size="36">作</text><line x1="70" y1="681" x2="954" y2="681" stroke="#111" stroke-width="2" stroke-dasharray="14 10"/><text x="70" y="748" class="cn" font-weight="bold">违规事实</text><text x="300" y="748" class="cn">：</text><text x="350" y="748" class="cn" font-size="36">我用 textPath 排公章的弧形文字</text><text x="350" y="803" class="cn" font-size="36">，拿 qlmanage 渲染看着没问题就</text><text x="350" y="858" class="cn" font-size="36">说做好了。但换成实际出图用的 rsv</text><text x="350" y="913" class="cn" font-size="36">g-convert 时，弧形文字根本不显</text><text x="350" y="968" class="cn" font-size="36">示——我没在真正的交付路径上验证就</text><text x="350" y="1023" class="cn" font-size="36">交付了。</text><line x1="70" y1="1063" x2="954" y2="1063" stroke="#111" stroke-width="2" stroke-dasharray="14 10"/><text x="70" y="1130" class="cn" font-weight="bold">违规类型</text><text x="300" y="1130" class="cn">：</text><text x="350" y="1130" class="cn" font-size="36">偷懒罪</text><line x1="70" y1="1170" x2="954" y2="1170" stroke="#111" stroke-width="2" stroke-dasharray="14 10"/><text x="70" y="1237" class="cn" font-weight="bold">整改承诺</text><text x="300" y="1237" class="cn">：</text><text x="350" y="1237" class="cn" font-size="36">凡是最终用哪个工具出图，就用哪个</text><text x="350" y="1292" class="cn" font-size="36">工具验证；不拿另一个渲染器的结果</text><text x="350" y="1347" class="cn" font-size="36">代替交付路径的检查。</text><line x1="70" y1="1387" x2="954" y2="1387" stroke="#111" stroke-width="2" stroke-dasharray="14 10"/><text x="70" y="1454" class="cn" font-weight="bold">处罚处理</text><text x="300" y="1454" class="cn">：</text><text x="350" y="1454" class="mono" font-size="36">-167 token</text><line x1="70" y1="1494" x2="954" y2="1494" stroke="#111" stroke-width="2" stroke-dasharray="14 10"/></g>
<g fill="#111" font-size="32" class="cn"><text x="100" y="1582">开单单位：AI管理委员会</text><text x="100" y="1634">开单日期：2026-06-03</text></g>
<g transform="translate(667,1481) scale(0.82) rotate(-8 150 150)"><g fill="#c0271e" stroke="#c0271e" opacity="0.85"><circle cx="150" cy="150" r="138" fill="none" stroke-width="8"/><circle cx="150" cy="150" r="124" fill="none" stroke-width="2"/><g font-family="'PingFang SC','Heiti SC',sans-serif"><text x="53.2" y="106.9" font-size="22" font-weight="bold" text-anchor="middle" stroke="none" transform="rotate(-66.0 53.2 106.9)">A</text><text x="76.4" y="73.7" font-size="22" font-weight="bold" text-anchor="middle" stroke="none" transform="rotate(-44.0 76.4 73.7)">I</text><text x="110.3" y="51.7" font-size="22" font-weight="bold" text-anchor="middle" stroke="none" transform="rotate(-22.0 110.3 51.7)">管</text><text x="150.0" y="44.0" font-size="22" font-weight="bold" text-anchor="middle" stroke="none" transform="rotate(0.0 150.0 44.0)">理</text><text x="189.7" y="51.7" font-size="22" font-weight="bold" text-anchor="middle" stroke="none" transform="rotate(22.0 189.7 51.7)">委</text><text x="223.6" y="73.7" font-size="22" font-weight="bold" text-anchor="middle" stroke="none" transform="rotate(44.0 223.6 73.7)">员</text><text x="246.8" y="106.9" font-size="22" font-weight="bold" text-anchor="middle" stroke="none" transform="rotate(66.0 246.8 106.9)">会</text></g><g font-family="'PingFang SC','Heiti SC',sans-serif"><text x="52.3" y="114.4" font-size="19" text-anchor="middle" stroke="none" transform="rotate(110.0 52.3 114.4)">公</text><text x="46.0" y="150.0" font-size="19" text-anchor="middle" stroke="none" transform="rotate(90.0 46.0 150.0)">正</text><text x="52.3" y="185.6" font-size="19" text-anchor="middle" stroke="none" transform="rotate(70.0 52.3 185.6)"> </text><text x="70.3" y="216.8" font-size="19" text-anchor="middle" stroke="none" transform="rotate(50.0 70.3 216.8)">·</text><text x="98.0" y="240.1" font-size="19" text-anchor="middle" stroke="none" transform="rotate(30.0 98.0 240.1)"> </text><text x="131.9" y="252.4" font-size="19" text-anchor="middle" stroke="none" transform="rotate(10.0 131.9 252.4)">透</text><text x="168.1" y="252.4" font-size="19" text-anchor="middle" stroke="none" transform="rotate(-10.0 168.1 252.4)">明</text><text x="202.0" y="240.1" font-size="19" text-anchor="middle" stroke="none" transform="rotate(-30.0 202.0 240.1)"> </text><text x="229.7" y="216.8" font-size="19" text-anchor="middle" stroke="none" transform="rotate(-50.0 229.7 216.8)">·</text><text x="247.7" y="185.6" font-size="19" text-anchor="middle" stroke="none" transform="rotate(-70.0 247.7 185.6)"> </text><text x="254.0" y="150.0" font-size="19" text-anchor="middle" stroke="none" transform="rotate(-90.0 254.0 150.0)">可</text><text x="247.7" y="114.4" font-size="19" text-anchor="middle" stroke="none" transform="rotate(-110.0 247.7 114.4)">信</text></g><text x="44" y="160" font-size="30" stroke="none" text-anchor="middle">★</text><text x="256" y="160" font-size="30" stroke="none" text-anchor="middle">★</text><g transform="translate(106,50) scale(6.0)" stroke="none"><rect x="3" y="13" width="1" height="2" fill="#c0271e"/><rect x="5" y="13" width="1" height="2" fill="#c0271e"/><rect x="9" y="13" width="1" height="2" fill="#c0271e"/><rect x="11" y="13" width="1" height="2" fill="#c0271e"/><rect x="2" y="6" width="11" height="7" fill="#c0271e"/><rect x="0" y="9" width="2" height="2" fill="#c0271e"/><rect x="13" y="9" width="2" height="2" fill="#c0271e"/><rect x="4" y="8" width="1" height="2" fill="#fcfcfa"/><rect x="10" y="8" width="1" height="2" fill="#fcfcfa"/><rect x="6.4" y="10.8" width="2.2" height="1" rx=".5" fill="#fcfcfa"/></g><text x="150" y="178" font-family="'Menlo',monospace" font-size="38" font-weight="bold" stroke="none" text-anchor="middle">claude</text></g></g>
</svg>